<svg version="1.1" id="Layer_1" xmlns="http://www.w3.org/2000/svg" xmlns:xlink="http://www.w3.org/1999/xlink" x="0px" y="0px" width="4243.531px" height="635.968px" viewBox="0 0 500 636" enable-background="new 0 0 4243.531 635.968" xml:space="preserve" style="">
<path fill="#FFFFFF" d="M484.63,164.38l-4.139-6.663c-22.635-36.438-52.636-64.654-89.167-83.866  c-35.988-18.925-77.255-28.525-122.717-28.534c-45.387,0-86.646,9.601-122.634,28.536c-36.514,19.212-66.505,47.428-89.14,83.864  l-4.139,6.663l-0.059,279.478l216.026,159.734l216.026-159.734L484.63,164.38z M107.676,256.322  c12.625,10.091,26.229,19.165,40.637,27.001c29.375,15.978,60.847,26.14,92.351,29.957v44.998  c-32.61-20.692-65.862-22.847-78.12-22.847c-19.295,0-38.145,4.224-54.887,12.229L107.676,256.322z M268.664,150.287  c16.479,0,29.887,13.407,29.887,29.887s-13.407,29.887-29.887,29.887c-16.48,0-29.889-13.407-29.889-29.887  S252.184,150.287,268.664,150.287z M296.663,313.28c31.507-3.816,62.98-13.979,92.355-29.957  c14.404-7.836,28.008-16.908,40.631-26.999l0.02,91.337c-16.742-8.006-35.591-12.229-54.887-12.229  c-12.257,0-45.509,2.154-78.119,22.847V313.28z M429.055,179.522c-36.477,46.408-93.738,76.911-150.392,80.161v-0.27  c39.345-4.938,69.888-38.578,69.888-79.24s-30.543-74.301-69.888-79.239v-0.403C343.679,103.053,395.363,130.191,429.055,179.522z   M258.663,100.529v0.406c-39.345,4.938-69.888,38.578-69.888,79.239c0,40.662,30.543,74.301,69.888,79.239v0.271  c-56.653-3.251-113.915-33.753-150.392-80.162C141.971,130.177,193.644,103.038,258.663,100.529z M325.063,493.487H212.264  l-104.621-77.359v-0.471c12.035-19.953,36.419-27.225,54.9-27.225c11.068,0,49.158,2.764,74.569,38.344l7.927,11.098h47.248  l7.927-11.098c25.411-35.58,63.5-38.344,74.568-38.344c18.481,0,42.866,7.271,54.901,27.225v0.471L325.063,493.487z"/>

</svg>